<svg xmlns="http://www.w3.org/2000/svg" xmlns:xlink="http://www.w3.org/1999/xlink" width="26.839" height="32.676" viewBox="0 0 26.839 32.676">
  <defs>
    <clipPath id="clip-path">
      <path id="Clip_6" data-name="Clip 6" d="M0,0H16.234V10.378H0Z" transform="translate(0 0.061)" fill="none"/>
    </clipPath>
  </defs>
  <g id="cart-icon" transform="translate(0 -0.649)">
    <g id="Group_5" data-name="Group 5">
      <path id="Fill_1" data-name="Fill 1" d="M0,32.676V8.682H7.31V6.1a6.107,6.107,0,0,1,12.213,0V8.682h7.316V32.676ZM17.541,8.682V6.1A4.122,4.122,0,0,0,9.3,6.1V8.682Z" transform="translate(0 0.649)" fill="#2e5069"/>
    </g>
    <g id="Group_8" data-name="Group 8" transform="translate(5.313 15.938)">
      <path id="Fill_1-2" data-name="Fill 1" d="M1.94,3.685c-.5,0-1.009,0-1.514,0C.3,3.684.246,3.621.28,3.5c.088-.318.182-.635.277-.951C.6,2.417.6,2.423.482,2.37c-.14-.063-.276-.135-.414-.2A.113.113,0,0,1,0,2.03,2.81,2.81,0,0,1,.516.781a1.823,1.823,0,0,1,1.1-.745A1.584,1.584,0,0,1,2.973.369a2.529,2.529,0,0,1,.875,1.473c.008.032.013.064.018.1.03.21.062.171-.14.285a3.012,3.012,0,0,1-.354.161c-.063.026-.074.056-.054.123.1.315.19.632.284.949a.32.32,0,0,1,.011.072c.006.1-.034.154-.135.155q-.456.008-.911.011c-.209,0-.418,0-.626,0Z" transform="translate(9.687 6.868)" fill="#fff"/>
      <path id="Fill_3" data-name="Fill 3" d="M1.782,3.688A1.815,1.815,0,0,1,0,1.84,1.822,1.822,0,0,1,1.823,0,1.822,1.822,0,0,1,3.576,1.853,1.812,1.812,0,0,1,1.782,3.688" transform="translate(9.856 2.974)" fill="#fff"/>
      <g id="Group_7" data-name="Group 7" transform="translate(0 0.095)">
        <path id="Clip_6-2" data-name="Clip 6" d="M0,0H16.234V10.378H0Z" transform="translate(0 0.061)" fill="none"/>
        <g id="Group_7-2" data-name="Group 7" clip-path="url(#clip-path)">
          <path id="Fill_5" data-name="Fill 5" d="M16.234,3.818v6.561l-.095,0h-2.1V10.26q0-2.8,0-5.6a3.084,3.084,0,0,0-.017-.359,2.374,2.374,0,0,0-.846-1.581,2.35,2.35,0,0,0-2.035-.5A2.377,2.377,0,0,0,9.225,4.6q0,2.834,0,5.669v.1H7.009v-.111q0-2.8,0-5.6c0-.1,0-.207-.015-.31A2.384,2.384,0,0,0,4.113,2.22,2.379,2.379,0,0,0,2.2,4.568q0,2.847,0,5.693v.115H2.085L0,10.378V.3L.095.3H2.38V.979c.028-.021.045-.031.06-.045A3.51,3.51,0,0,1,4.487.021,3.563,3.563,0,0,1,5.894.166,4.762,4.762,0,0,1,8.045,1.619l.059.064.073-.08A4.673,4.673,0,0,1,11.226.027a4.778,4.778,0,0,1,3.752,1.259A4,4,0,0,1,16.154,3.4c.029.137.053.276.079.414" transform="translate(0 0.061)" fill="#fff"/>
        </g>
      </g>
    </g>
  </g>
</svg>
